<svg xmlns="http://www.w3.org/2000/svg"  viewBox="0 0 50 50" width="25px" height="25px"><path d="M 24.998047 6.0019531 C 24.644297 6.0019531 24.292406 6.1222813 24.003906 6.3632812 L 7.1796875 20.419922 C 6.9676875 20.597922 6.9382344 20.913 7.1152344 21.125 C 7.2942344 21.337 7.6083125 21.3655 7.8203125 21.1875 L 24.638672 7.1347656 C 24.847672 6.9597656 25.150375 6.9597656 25.359375 7.1347656 L 42.179688 21.189453 C 42.272688 21.267453 42.387 21.304688 42.5 21.304688 C 42.643 21.304687 42.785766 21.244953 42.884766 21.126953 C 43.061766 20.914953 43.032313 20.598875 42.820312 20.421875 L 40 18.066406 L 40 11 C 40 10.448 39.552 10 39 10 L 38 10 C 37.448 10 37 10.448 37 11 L 37 15.558594 L 25.994141 6.3632812 C 25.705641 6.1222813 25.351797 6.0019531 24.998047 6.0019531 z M 25 8.140625 L 10 20.671875 L 10 36 C 10 37.657 11.343 39 13 39 L 36.25 39 C 38.321 39 40 37.321 40 35.25 L 40 20.671875 L 25 8.140625 z M 21.666016 25 L 28.332031 25 C 29.253031 25 30 25.746969 30 26.667969 L 30 38 L 20 38 L 20 26.667969 C 20 25.746969 20.746016 25 21.666016 25 z"/></svg>