<svg xmlns="http://www.w3.org/2000/svg" version="1.1" viewBox="-5.0 -10.0 110.0 135.0">
 <path d="m50 8.75c-22.781 0-41.25 18.469-41.25 41.25s18.469 41.25 41.25 41.25 41.25-18.469 41.25-41.25-18.469-41.25-41.25-41.25zm26.453 65.051-1.2617-1.2617c-0.73047-0.73047-1.9219-0.73047-2.6523 0-0.73047 0.73047-0.73047 1.918 0 2.6523l1.2617 1.2617c-5.875 5.2891-13.508 8.6367-21.926 9.0781v-1.7812c0-1.0352-0.83984-1.875-1.875-1.875s-1.875 0.83984-1.875 1.875v1.7812c-8.4219-0.4375-16.051-3.7852-21.926-9.0781l1.2617-1.2617c0.73047-0.73047 0.73047-1.918 0-2.6523-0.73047-0.73047-1.918-0.73047-2.6523 0l-1.2617 1.2617c-5.2891-5.875-8.6367-13.508-9.0781-21.926h1.7812c1.0352 0 1.875-0.83984 1.875-1.875s-0.83984-1.875-1.875-1.875h-1.7812c0.4375-8.4219 3.7852-16.051 9.0781-21.926l1.2617 1.2617c0.73047 0.73047 1.9219 0.73047 2.6523 0 0.73047-0.73047 0.73047-1.918 0-2.6523l-1.2617-1.2617c5.875-5.2891 13.508-8.6367 21.926-9.0781v1.7812c0 1.0352 0.83984 1.875 1.875 1.875s1.875-0.83984 1.875-1.875v-1.7812c8.4219 0.4375 16.051 3.7852 21.926 9.0781l-1.2617 1.2617c-0.73047 0.73047-0.73047 1.918 0 2.6523 0.73047 0.73047 1.918 0.73047 2.6523 0l1.2617-1.2617c5.2891 5.875 8.6367 13.508 9.0781 21.926h-1.7812c-1.0352 0-1.875 0.83984-1.875 1.875s0.83984 1.875 1.875 1.875h1.7812c-0.4375 8.4219-3.7852 16.051-9.0781 21.926z"/>
 <path d="m50 53.391 13.59-7.8477c0.625-0.35938 0.625-1.2617 0-1.625l-13.121-7.5742c-0.28906-0.16797-0.64844-0.16797-0.9375 0l-13.121 7.5742c-0.625 0.35938-0.625 1.2617 0 1.625z"/>
 <path d="m51.875 56.637v17.266c0 0.72266 0.78125 1.1719 1.4062 0.8125l13.125-7.5781c0.28906-0.16797 0.46875-0.47656 0.46875-0.8125v-16.723c0-0.72266-0.78125-1.1719-1.4062-0.8125z"/>
 <path d="m48.125 56.637-13.594-7.8477c-0.625-0.35937-1.4062 0.089844-1.4062 0.8125v16.723c0 0.33594 0.17969 0.64453 0.46875 0.8125l13.125 7.5781c0.625 0.35938 1.4062-0.089844 1.4062-0.8125z"/>
 <path d="m49.16 22.863-4.3242 8.6484c-0.35938 0.72266 0.30078 1.5312 1.0781 1.3242l3.6016-0.96094c0.31641-0.085938 0.64844-0.085938 0.96484 0l3.6016 0.96094c0.78125 0.20703 1.4414-0.60156 1.0781-1.3242l-4.3242-8.6484c-0.34375-0.69141-1.332-0.69141-1.6758 0z"/>
</svg>