<svg xmlns="http://www.w3.org/2000/svg" version="1.1" viewBox="-5.0 -10.0 110.0 135.0">
 <path d="m30.809 75.797c-2.6367 0.63281-4.7852 0.36719-5.8789-0.72656-2.5078-2.5078-0.17578-9.5508 2.6484-12.375 1.4531-1.4531 4.0039-2.7773 6.5-3.3789 0.94531-0.22656 1.8242-0.33594 2.6172-0.33594 1.4219 0 2.5547 0.36328 3.2578 1.0664 1.0938 1.0938 1.3594 3.2344 0.72656 5.875-0.60156 2.4961-1.9258 5.0469-3.3789 6.5-1.4492 1.4531-3.9961 2.7734-6.4922 3.375z"/>
 <path d="m92.184 35.117c0.98047 3.6641-1.1953 7.4414-4.8594 8.4219-1.7734 0.47656-3.625 0.23438-5.2188-0.6875-1.5898-0.91797-2.7266-2.4023-3.2031-4.1758-0.98047-3.6641 1.1992-7.4414 4.8633-8.4219 1.7734-0.47656 3.6328-0.23047 5.2148 0.6875 1.5938 0.92188 2.7305 2.4062 3.2031 4.1758z"/>
 <path d="m82.195 17.809c2.6797 2.6797 2.6797 7.043 0 9.7266-2.6797 2.6797-7.0391 2.6797-9.7266 0-2.6797-2.6797-2.6797-7.043 0-9.7266 2.6797-2.6797 7.0391-2.6797 9.7266 0z"/>
 <path d="m56.461 12.68c0.82031-3.0703 3.6055-5.0977 6.6445-5.0977 0.58594 0 1.1836 0.074219 1.7773 0.23438 3.6641 0.98047 5.8438 4.7578 4.8594 8.4219-0.97656 3.6641-4.7578 5.8398-8.4219 4.8633-3.6602-0.98437-5.8438-4.7617-4.8594-8.4219z"/>
 <path d="m44.895 7.8164c0.58984-0.16016 1.1953-0.23828 1.7891-0.23828 1.1914 0 2.3672 0.3125 3.4297 0.92578 1.5898 0.91797 2.7266 2.4023 3.2031 4.1758 0.47656 1.7734 0.23047 3.6289-0.6875 5.2148-0.91406 1.5898-2.3984 2.7305-4.1758 3.2031-1.7734 0.47656-3.6289 0.23047-5.2148-0.6875-1.5898-0.91797-2.7266-2.4023-3.2031-4.1758-0.98438-3.6602 1.1953-7.4375 4.8594-8.418z"/>
 <path d="m27.582 17.809c1.3398-1.3398 3.1016-2.0117 4.8633-2.0117 1.7578 0 3.5234 0.66797 4.8633 2.0078 2.6797 2.6797 2.6797 7.043 0 9.7266-2.6797 2.6797-7.043 2.6797-9.7266 0-2.6797-2.6797-2.6797-7.0391 0-9.7227z"/>
 <path d="m17.586 35.117c0.82031-3.0703 3.6094-5.0977 6.6445-5.0977 0.58594 0 1.1836 0.074219 1.7773 0.23438 3.6602 0.98047 5.8438 4.7578 4.8633 8.4219-0.97656 3.6641-4.7539 5.8438-8.4219 4.8633-3.6602-0.98047-5.8438-4.7578-4.8633-8.4219z"/>
 <path d="m17.586 55.109c-0.47656-1.7734-0.23047-3.6289 0.6875-5.2148 0.91797-1.5898 2.4023-2.7266 4.1758-3.2031 0.59375-0.16016 1.1914-0.23438 1.7773-0.23438 3.0352 0 5.8203 2.0273 6.6406 5.0938 0.47656 1.7734 0.23047 3.6289-0.6875 5.2188-0.91797 1.5898-2.4023 2.7266-4.1758 3.2031-3.6602 0.98828-7.4336-1.1992-8.418-4.8633z"/>
 <path d="m23.086 90.488c-0.48438 1.0117-1.4023 1.6953-2.5195 1.8867-1.1133 0.17969-2.2031-0.16406-3-0.97266l-8.9766-8.9766c-0.79297-0.78516-1.1484-1.8672-0.96875-2.9648 0.18359-1.1211 0.875-2.0547 1.8906-2.5469l11.723-5.625c-0.089844 2.207 0.41016 4.2539 1.8203 5.6602 1.2188 1.2188 2.9883 1.8438 5.1328 1.8438 0.17969 0 0.37109-0.027344 0.55469-0.039063z"/>
 <path d="m53.312 77.555c-0.47656 1.7734-1.6133 3.2578-3.2031 4.1758-1.5938 0.91406-3.4453 1.1602-5.2188 0.68359-1.7734-0.47656-3.2578-1.6133-4.1758-3.2031-0.91406-1.5898-1.1641-3.4453-0.68359-5.2188 0.47656-1.7734 1.6133-3.2578 3.2031-4.1758 1.0586-0.60938 2.2344-0.92188 3.4258-0.92188 0.59766 0 1.1992 0.078125 1.793 0.23828 1.7734 0.47656 3.2578 1.6133 4.1758 3.2031 0.91797 1.5898 1.1602 3.4414 0.68359 5.2188z"/>
 <path d="m69.055 79.211c-0.91797 1.5898-2.4023 2.7266-4.1758 3.2031-1.7812 0.47266-3.6289 0.23047-5.2188-0.68359-1.5898-0.91797-2.7266-2.4023-3.2031-4.1758-0.47656-1.7734-0.23047-3.6289 0.68359-5.2188 0.91797-1.5898 2.4023-2.7266 4.1758-3.2031 0.59375-0.16016 1.1953-0.23828 1.793-0.23828 1.1914 0 2.3672 0.3125 3.4258 0.92188 1.5898 0.91797 2.7266 2.4023 3.2031 4.1758 0.48047 1.7734 0.23828 3.625-0.68359 5.2188z"/>
 <path d="m82.191 72.418c-2.5938 2.6016-7.1211 2.6016-9.7227 0-1.3008-1.2969-2.0156-3.0234-2.0156-4.8633 0-1.8359 0.71484-3.5625 2.0156-4.8633 1.3008-1.3008 3.0234-2.0156 4.8633-2.0156 1.8359 0 3.5625 0.71484 4.8594 2.0156 1.3008 1.2969 2.0156 3.0234 2.0156 4.8594 0 1.8438-0.71484 3.5703-2.0156 4.8672z"/>
 <path d="m92.184 55.109c-0.47656 1.7734-1.6133 3.2578-3.2031 4.1758-1.5859 0.91406-3.4453 1.1641-5.2148 0.6875-1.7734-0.47656-3.2578-1.6133-4.1758-3.2031-0.91797-1.5898-1.1641-3.4453-0.6875-5.2188 0.47656-1.7734 1.6133-3.2578 3.2031-4.1758 1.0586-0.60938 2.2344-0.92188 3.4258-0.92188 0.59766 0 1.1992 0.078125 1.793 0.23828 1.7734 0.47656 3.2578 1.6133 4.1758 3.2031 0.91797 1.5859 1.1641 3.4414 0.68359 5.2148z"/>
</svg>